<?xml version="1.0" encoding="utf-8"?>
<!-- Generator: Adobe Illustrator 19.0.0, SVG Export Plug-In . SVG Version: 6.00 Build 0)  -->
<svg version="1.1" id="Objects" xmlns="http://www.w3.org/2000/svg" xmlns:xlink="http://www.w3.org/1999/xlink" x="0px" y="0px"
	 viewBox="0 0 469.1 469.1" style="enable-background:new 0 0 469.1 469.1;" xml:space="preserve">
<style type="text/css">
	.st0{fill:#DDDDDD;}
	.st1{fill:#A2715B;}
	.st2{fill:#231F20;}
	.st3{display:none;fill:#231F20;}
	.st4{display:none;}
	.st5{display:inline;}
	.st6{fill:#936351;}
	.st7{display:inline;fill:none;stroke:#231F20;stroke-width:4.0094;stroke-miterlimit:10;}
	.st8{display:inline;fill:#231F20;}
	.st9{fill:#8D604D;}
</style>
<g>
	<g>
		<g>
			<g>
				<path class="st0" d="M391.2,144.2c-55.7-110-156.9-99.7-156.9-99.7c0,0-101.2-10.3-156.9,99.7c-55.7,110-55.7,208.3,156.9,208.3
					l0,0h0l0,0l0,0C446.9,352.5,446.9,254.2,391.2,144.2z"/>
				<path class="st1" d="M224.4,44.2c0,0,21.1,154.1-31.7,179.7c-80.8,39.1-92.1,107.9-92.1,107.9c0,0,0,0,0,0l-8.2-3.9
					C23.8,292,35.5,221,74.4,144.2C121.4,51.5,200.6,44.2,224.4,44.2z"/>
				<path class="st1" d="M244.1,44.2c0,0-21.1,154.1,31.7,179.7c80.8,39.1,92.1,107.9,92.1,107.9c0,0,0,0,0,0l8.2-3.9
					c68.6-35.9,56.9-106.9,18-183.7C347.2,51.5,267.9,44.2,244.1,44.2z"/>
			</g>
			<g id="Face">
				<g id="Mouth">
					<path class="st2" d="M234.7,223.8c0,0-32.4-0.9-38.7,17.1c0,0,1.8,33.3,38.7,33.3c36.9,0,38.7-33.3,38.7-33.3
						C267.1,222.9,234.7,223.8,234.7,223.8z"/>
					<polygon id="Angry_Mouth" class="st2" points="203.4,294.6 276.5,311.4 203.4,321.3 					"/>
					<path class="st3" d="M300.9,272.8c-0.2,1.3-5.1,32-31.6,32c-24.1,0-30.5-25.8-31.6-31.3c0,0,0-0.1,0-0.1l0,0
						c-0.1-0.5-0.1-0.8-0.2-0.9l-2.8,0.4l-2.8-0.4c0,0.1-0.1,0.4-0.2,0.9l0,0c0,0,0,0.1,0,0.1c-1.1,5.5-7.5,31.3-31.6,31.3
						c-26.4,0-31.4-30.7-31.6-32l-5.8,0.9c0.1,0.4,5.9,37,37.4,37c20.6,0,30.3-15.8,34.6-26.9c4.3,11,14,26.9,34.6,26.9
						c31.5,0,37.3-36.6,37.4-37L300.9,272.8z"/>
				</g>
				<g id="Angry">
					<path id="Eye_R_2_" class="st2" d="M275.1,171.5c3.2,8.1,12.4,12.1,20.5,8.8c8.1-3.2,12.1-12.4,8.9-20.5"/>
					<path id="Eye_L_3_" class="st2" d="M192.9,171.5c-3.2,8.1-12.4,12.1-20.5,8.8c-8.1-3.2-12.1-12.4-8.9-20.5"/>
				</g>
				<g id="Sleeping" class="st4">
					<g id="Zzz" class="st5">
						<path class="st6" d="M408.7,28.9c-5.6,0.8-11.5,2.1-16.6,5c1.1-6.7,2.4-13.4,4.4-20c0.5-1.8-1.5-3.4-3.1-2.4
							c-5.6,3.5-11.9,5.1-18,7.6c-1.2,0.5-0.7,2.4,0.5,2c5.1-1.7,10.2-2.5,15.2-4.1c-1.9,7-3.1,14.2-4.3,21.3
							c-0.4,2.2,2,3.8,3.8,2.2c5.7-5,13-4.8,19.5-8C412.2,31.3,410.6,28.7,408.7,28.9z"/>
						<path class="st6" d="M400.5,20.3c-5.1,2.9-10,6.4-15.7,8.2c-1.1,0.4-0.7,2.1,0.5,1.8c5.9-1.4,11.7-4.3,16.5-7.9
							C402.9,21.5,401.9,19.6,400.5,20.3z"/>
						<path class="st6" d="M423.1,1.2c-3.8,2.2-8.2,3.6-12,5.8c0.4-7.1,1.6-14.8,4.9-20.9c0.6-1.1-0.1-2.8-1.6-2.7
							c-6.1,0.4-11.2,3.6-15.4,7.8c-0.8,0.8,0.2,1.9,1.2,1.5c4-1.8,7.1-4.3,11.2-5.3c-3.1,7.2-4,15.6-4.1,23.2c0,1.7,2,2.4,3.2,1.3
							c4.2-3.7,11-3.7,14.6-8.2C426.1,2.4,424.8,0.2,423.1,1.2z"/>
						<path class="st6" d="M419.2-9.4c-4.3,3.1-8.6,6.4-14,7.1c-1.1,0.1-1.1,1.7,0,1.7c5.9,0.4,12-1.8,15.8-6.6
							C421.8-8.3,420.6-10.4,419.2-9.4z"/>
						<path class="st6" d="M450.3-24.5c-6.3,1.4-12.8,4.4-18.6,7.5c1.2-6.8,2.5-13.6,4.6-20.3c0.3-1.1-0.8-2.5-2-2
							c-4.6,1.7-9.4,2-13.5,4.7c-1.1,0.8-0.2,2.4,1.1,1.8c3.3-1.6,6.9-2.2,10.5-2.8c-2.1,7.1-3.5,14.3-4.7,21.5
							c-0.3,1.5,1.2,2.9,2.7,2.1c6.8-3.9,14.7-5.6,21.4-9.5C453.3-22.5,452.1-24.9,450.3-24.5z"/>
						<path class="st6" d="M440-31.2c-5.5,0.4-11.1,3-16.3,4.8c-1,0.3-0.6,1.7,0.4,1.6c5.4-0.9,11.6-1.3,16.7-3.5
							C442.2-28.9,441.5-31.3,440-31.2z"/>
						<path class="st6" d="M465.6-36.5c-2,0-2,4.8,0,4.8C469.6-31.7,469.6-36.5,465.6-36.5z"/>
						<path class="st6" d="M480.6-45.8c-6,0-6,5.5,0,5.5C482.6-40.3,482.6-45.8,480.6-45.8z"/>
						<path class="st6" d="M487.6-55.6c0-1.1-0.6-1.9-1.4-2.4c-0.8-0.8-2-1.2-3.2-0.9c-1.4,0.4-2.5,1.7-2.5,3.2c0,1.5,1,2.8,2.5,3.2
							c1.2,0.3,2.4,0,3.2-0.9C487.1-53.7,487.6-54.5,487.6-55.6z"/>
					</g>
					<path id="Eye_R" class="st7" d="M273.4,173.1c1.2,1.4,8.8,9.7,21.4,10c13.4,0.3,21.6-8.7,22.7-10"/>
					<path id="Eye_L_1_" class="st7" d="M151.9,173.1c1.2,1.4,8.8,9.7,21.4,10c13.4,0.3,21.6-8.7,22.7-10"/>
				</g>
				<g id="Normal" class="st4">
					<path id="Eye_R_1_" class="st8" d="M299.4,168.9c0,6.9-5.6,12.5-12.5,12.5c-6.9,0-12.5-5.6-12.5-12.5c0-6.9,5.6-12.5,12.5-12.5
						C293.8,156.4,299.4,162,299.4,168.9z"/>
					<path id="Eye_L_2_" class="st8" d="M196,168.6c0,6.9-5.6,12.5-12.5,12.5c-6.9,0-12.5-5.6-12.5-12.5c0-6.9,5.6-12.5,12.5-12.5
						C190.4,156.1,196,161.7,196,168.6z"/>
				</g>
			</g>
		</g>
		<path id="Ear_R" class="st9" d="M320.7,64.7c0,0,57.8,23.3,84.2,51.6c13.8,14.8,39.1,43.9,41.1,107.4c2,63.5,15.6,95,21.7,151.6
			c7.6,70.4-114.8,61.2-119.5,7.8c-5.9-66.5,10.8-138,10.8-202.6C358.9,127.1,320.7,64.7,320.7,64.7z"/>
		<path id="Ear_L" class="st9" d="M147.3,64.7c0,0-57.8,23.3-84.2,51.6C49.4,131.1,24,160.3,22,223.8c-2,63.5-15.6,95-21.7,151.6
			c-7.6,70.4,114.8,61.2,119.5,7.8c5.9-66.5-10.8-138-10.8-202.6C109.1,127.1,147.3,64.7,147.3,64.7z"/>
	</g>
</g>
</svg>
