<?xml version="1.0" encoding="utf-8"?>
<!-- Generator: Adobe Illustrator 19.0.0, SVG Export Plug-In . SVG Version: 6.00 Build 0)  -->
<svg version="1.1" id="Objects" xmlns="http://www.w3.org/2000/svg" xmlns:xlink="http://www.w3.org/1999/xlink" x="0px" y="0px"
	 viewBox="0 0 800 800" style="enable-background:new 0 0 800 800;" xml:space="preserve">
<style type="text/css">
	.st0{fill:#DDDDDD;}
	.st1{fill:#A2715B;}
	.st2{fill:#231F20;}
	.st3{display:none;fill:#231F20;}
	.st4{display:none;}
	.st5{display:inline;}
	.st6{fill:#936351;}
	.st7{display:inline;fill:none;stroke:#231F20;stroke-width:4.019;stroke-miterlimit:10;}
	.st8{display:inline;fill:#231F20;}
	.st9{fill:#8D604D;}
</style>
<g>
	<g>
		<g>
			<g>
				<path class="st0" d="M557.6,309c-55.9-110.2-157.3-100-157.3-100c0,0-101.4-10.3-157.3,100c-55.9,110.3-55.9,208.8,157.3,208.8
					l0,0h0l0,0l0,0C613.4,517.7,613.4,419.3,557.6,309z"/>
				<path class="st1" d="M390.4,208.8c0,0,21.2,154.5-31.8,180.1c-81,39.2-92.3,108.2-92.3,108.2c0,0,0,0,0,0l-8.2-4
					c-68.8-36-57-107.2-18.1-184.1C287.1,216.1,366.5,208.8,390.4,208.8z"/>
				<path class="st1" d="M410.2,208.8c0,0-21.2,154.5,31.8,180.1c81,39.2,92.3,108.2,92.3,108.2c0,0,0,0,0,0l8.2-4
					c68.8-36,57-107.2,18.1-184.1C513.4,216.1,434,208.8,410.2,208.8z"/>
			</g>
			<g id="Face">
				<g id="Mouth">
					<path class="st2" d="M400.7,388.8c0,0-32.5-0.9-38.8,17.2c0,0,1.8,33.4,38.8,33.4c37,0,38.8-33.4,38.8-33.4
						C433.2,387.9,400.7,388.8,400.7,388.8z"/>
					<polygon id="Angry_Mouth" class="st2" points="369.3,459.7 442.6,476.6 369.3,486.5 					"/>
					<path class="st3" d="M467,437.9c-0.2,1.3-5.2,32-31.6,32c-24.2,0-30.6-25.9-31.7-31.4c0,0,0-0.1,0-0.1l0,0
						c-0.1-0.5-0.1-0.8-0.2-0.9l-2.8,0.4l-2.8-0.4c0,0.1-0.1,0.4-0.2,0.9l0,0c0,0,0,0.1,0,0.1c-1.1,5.5-7.5,31.4-31.7,31.4
						c-26.5,0-31.4-30.7-31.6-32l-5.8,0.9c0.1,0.4,5.9,37.1,37.5,37.1c20.7,0,30.4-15.9,34.7-26.9c4.3,11,14,26.9,34.7,26.9
						c31.6,0,37.4-36.7,37.5-37.1L467,437.9z"/>
				</g>
				<g id="Angry">
					<path id="Eye_R_2_" class="st2" d="M441.2,336.3c3.2,8.1,12.4,12.1,20.5,8.9c8.1-3.2,12.1-12.4,8.9-20.5"/>
					<path id="Eye_L_3_" class="st2" d="M358.8,336.3c-3.2,8.1-12.4,12.1-20.5,8.9c-8.1-3.2-12.1-12.4-8.9-20.5"/>
				</g>
				<g id="Sleeping" class="st4">
					<g id="Zzz" class="st5">
						<path class="st6" d="M575.1,193.4c-5.6,0.8-11.6,2.2-16.6,5c1.1-6.8,2.4-13.5,4.4-20.1c0.5-1.8-1.6-3.4-3.1-2.4
							c-5.6,3.5-11.9,5.1-18,7.6c-1.2,0.5-0.7,2.4,0.5,2c5.1-1.7,10.3-2.5,15.3-4.1c-1.9,7-3.1,14.2-4.3,21.4
							c-0.4,2.2,2,3.8,3.8,2.2c5.7-5,13.1-4.8,19.5-8C578.6,195.8,577,193.2,575.1,193.4z"/>
						<path class="st6" d="M566.9,184.8c-5.2,2.9-10.1,6.4-15.8,8.2c-1.1,0.4-0.7,2.1,0.5,1.8c5.9-1.4,11.7-4.3,16.5-7.9
							C569.3,186,568.3,184,566.9,184.8z"/>
						<path class="st6" d="M589.6,165.6c-3.8,2.2-8.2,3.6-12,5.8c0.4-7.2,1.6-14.8,4.9-21c0.6-1.1-0.1-2.8-1.6-2.7
							c-6.1,0.4-11.2,3.6-15.5,7.8c-0.8,0.8,0.2,1.9,1.2,1.5c4.1-1.8,7.1-4.3,11.2-5.3c-3.1,7.2-4.1,15.6-4.1,23.3
							c0,1.7,2,2.4,3.2,1.3c4.3-3.7,11.1-3.7,14.6-8.3C592.6,166.8,591.3,164.6,589.6,165.6z"/>
						<path class="st6" d="M585.6,155c-4.3,3.1-8.6,6.4-14.1,7.1c-1.1,0.1-1.1,1.7,0,1.7c6,0.4,12-1.8,15.8-6.6
							C588.3,156.1,587.1,154,585.6,155z"/>
						<path class="st6" d="M616.9,139.9c-6.3,1.4-12.8,4.4-18.7,7.6c1.2-6.9,2.5-13.6,4.6-20.3c0.3-1.1-0.8-2.5-2-2
							c-4.6,1.7-9.4,2-13.5,4.7c-1.1,0.8-0.2,2.4,1.1,1.8c3.3-1.6,6.9-2.2,10.5-2.8c-2.1,7.1-3.5,14.3-4.7,21.6
							c-0.3,1.5,1.2,2.9,2.7,2.1c6.8-3.9,14.7-5.6,21.4-9.6C619.8,141.9,618.7,139.4,616.9,139.9z"/>
						<path class="st6" d="M606.5,133.2c-5.5,0.4-11.1,3-16.4,4.8c-1,0.3-0.6,1.8,0.4,1.6c5.4-0.9,11.6-1.3,16.7-3.5
							C608.8,135.5,608,133,606.5,133.2z"/>
						<path class="st6" d="M632,127.9c-2,0-2,4.8,0,4.8C636,132.6,636,127.9,632,127.9z"/>
						<path class="st6" d="M647,118.5c-5,0-5,5.5,0,5.5C650,124,650,118.5,647,118.5z"/>
						<path class="st6" d="M654.2,108.7c0-1.1-0.6-1.9-1.4-2.4c-0.8-0.8-2-1.2-3.2-0.9c-1.4,0.4-2.5,1.7-2.5,3.2
							c0,1.5,1,2.8,2.5,3.2c1.2,0.3,2.4,0,3.2-0.9C653.7,110.6,654.2,109.8,654.2,108.7z"/>
					</g>
					<path id="Eye_R" class="st7" d="M439.5,338c1.2,1.4,8.8,9.8,21.4,10c13.4,0.3,21.6-8.8,22.8-10"/>
					<path id="Eye_L_1_" class="st7" d="M317.7,338c1.2,1.4,8.8,9.8,21.4,10c13.4,0.3,21.6-8.8,22.8-10"/>
				</g>
				<g id="Normal" class="st4">
					<path id="Eye_R_1_" class="st8" d="M465.5,333.8c0,6.9-5.6,12.5-12.5,12.5c-6.9,0-12.5-5.6-12.5-12.5c0-6.9,5.6-12.5,12.5-12.5
						C459.9,321.2,465.5,326.8,465.5,333.8z"/>
					<path id="Eye_L_2_" class="st8" d="M361.9,333.4c0,6.9-5.6,12.5-12.5,12.5c-6.9,0-12.5-5.6-12.5-12.5c0-6.9,5.6-12.5,12.5-12.5
						C356.3,320.9,361.9,326.5,361.9,333.4z"/>
				</g>
			</g>
		</g>
		<path id="Ear_R" class="st9" d="M486.9,229.3c0,0,57.9,23.3,84.4,51.7c13.8,14.8,39.2,44,41.2,107.7c2,63.7,15.6,95.2,21.8,152
			c7.6,70.6-115,61.3-119.8,7.8c-5.9-66.6,10.8-138.3,10.8-203C525.2,291.8,486.9,229.3,486.9,229.3z"/>
		<path id="Ear_L" class="st9" d="M313.1,229.3c0,0-57.9,23.3-84.4,51.7c-13.8,14.8-39.2,44-41.2,107.7c-2,63.7-15.6,95.2-21.8,152
			c-7.6,70.6,115,61.3,119.8,7.8c5.9-66.6-10.8-138.3-10.8-203C274.8,291.8,313.1,229.3,313.1,229.3z"/>
	</g>
</g>
</svg>
